<svg width="20" height="21" viewBox="0 0 20 21" fill="none" xmlns="http://www.w3.org/2000/svg">
<rect width="20" height="21" fill="#E5E5E5"/>
<rect width="1440" height="3502.17" transform="translate(-1123 -3412)" fill="white"/>
<rect width="1440" height="504" transform="translate(-1123 -413.83)" fill="white"/>
<path d="M11 8.16992C11 7.61764 11.4477 7.16992 12 7.16992H13C13.5523 7.16992 14 6.72221 14 6.16992C14 5.61764 13.5523 5.16992 13 5.16992H12C10.3431 5.16992 9 6.51307 9 8.16992V10.1699H8C7.44772 10.1699 7 10.6176 7 11.1699C7 11.7222 7.44771 12.1699 8 12.1699H9V18.1699C9 18.7222 9.4477 19.1699 10 19.1699C10.5523 19.1699 11 18.7222 11 18.1699V12.1699H13C13.5523 12.1699 14 11.7222 14 11.1699C14 10.6176 13.5523 10.1699 13 10.1699H11V8.16992Z" fill="#777E91"/>
<path fill-rule="evenodd" clip-rule="evenodd" d="M16 2.16992H4C2.89543 2.16992 2 3.06535 2 4.16992V16.1699C2 17.2745 2.89543 18.1699 4 18.1699H16C17.1046 18.1699 18 17.2745 18 16.1699V4.16992C18 3.06535 17.1046 2.16992 16 2.16992ZM4 0.169922C1.79086 0.169922 0 1.96078 0 4.16992V16.1699C0 18.379 1.79086 20.1699 4 20.1699H16C18.2091 20.1699 20 18.379 20 16.1699V4.16992C20 1.96078 18.2091 0.169922 16 0.169922H4Z" fill="#777E91"/>
</svg>
