<svg width="20" height="21" viewBox="0 0 20 21" fill="none" xmlns="http://www.w3.org/2000/svg">
<g id="instagram">
<path id="Vector" fill-rule="evenodd" clip-rule="evenodd" d="M14 2.16992H6C3.79086 2.16992 2 3.96078 2 6.16992V14.1699C2 16.379 3.79086 18.1699 6 18.1699H14C16.2091 18.1699 18 16.379 18 14.1699V6.16992C18 3.96078 16.2091 2.16992 14 2.16992ZM6 0.169922C2.68629 0.169922 0 2.85621 0 6.16992V14.1699C0 17.4836 2.68629 20.1699 6 20.1699H14C17.3137 20.1699 20 17.4836 20 14.1699V6.16992C20 2.85621 17.3137 0.169922 14 0.169922H6Z" fill="#777E91"/>
<path id="Vector_2" d="M15 6.16992C15.5523 6.16992 16 5.7222 16 5.16992C16 4.61764 15.5523 4.16992 15 4.16992C14.4477 4.16992 14 4.61764 14 5.16992C14 5.7222 14.4477 6.16992 15 6.16992Z" fill="#777E91"/>
<path id="Vector_3" fill-rule="evenodd" clip-rule="evenodd" d="M15 10.1699C15 12.9313 12.7614 15.1699 10 15.1699C7.23858 15.1699 5 12.9313 5 10.1699C5 7.4085 7.23858 5.16992 10 5.16992C12.7614 5.16992 15 7.4085 15 10.1699ZM13 10.1699C13 11.8268 11.6569 13.1699 10 13.1699C8.3431 13.1699 7 11.8268 7 10.1699C7 8.51302 8.3431 7.16992 10 7.16992C11.6569 7.16992 13 8.51302 13 10.1699Z" fill="#777E91"/>
</g>
</svg>
