<svg width="20" height="21" viewBox="0 0 20 21" fill="none" xmlns="http://www.w3.org/2000/svg">
<g id="linkedin">
<path id="Vector" fill-rule="evenodd" clip-rule="evenodd" d="M16 2.16992H4C2.89543 2.16992 2 3.06535 2 4.16992V16.1699C2 17.2745 2.89543 18.1699 4 18.1699H16C17.1046 18.1699 18 17.2745 18 16.1699V4.16992C18 3.06535 17.1046 2.16992 16 2.16992ZM4 0.169922C1.79086 0.169922 0 1.96078 0 4.16992V16.1699C0 18.379 1.79086 20.1699 4 20.1699H16C18.2091 20.1699 20 18.379 20 16.1699V4.16992C20 1.96078 18.2091 0.169922 16 0.169922H4Z" fill="#777E91"/>
<path id="Vector_2" d="M5 6.16992C5.55228 6.16992 6 5.7222 6 5.16992C6 4.61764 5.55228 4.16992 5 4.16992C4.44772 4.16992 4 4.61764 4 5.16992C4 5.7222 4.44772 6.16992 5 6.16992Z" fill="#777E91"/>
<path id="Vector_3" d="M5 8.16992C4.44772 8.16992 4 8.61762 4 9.16992V15.1699C4 15.7222 4.44772 16.1699 5 16.1699C5.55228 16.1699 6 15.7222 6 15.1699V9.16992C6 8.61762 5.55228 8.16992 5 8.16992Z" fill="#777E91"/>
<path id="Vector_4" d="M12 10.1699C10.8954 10.1699 10 11.0653 10 12.1699V15.1699C10 15.7222 9.5523 16.1699 9 16.1699C8.4477 16.1699 8 15.7222 8 15.1699V9.16992C8 8.61762 8.4477 8.16992 9 8.16992C9.4054 8.16992 9.7544 8.41112 9.9114 8.75782C10.5193 8.38492 11.2346 8.16992 12 8.16992C14.2091 8.16992 16 9.96082 16 12.1699V15.1699C16 15.7222 15.5523 16.1699 15 16.1699C14.4477 16.1699 14 15.7222 14 15.1699V12.1699C14 11.0653 13.1046 10.1699 12 10.1699Z" fill="#777E91"/>
</g>
</svg>
