<svg width="22" height="19" viewBox="0 0 22 19" fill="none" xmlns="http://www.w3.org/2000/svg">
<g id="twitter">
<path id="Vector" fill-rule="evenodd" clip-rule="evenodd" d="M2.11591 11.1697C0.450388 11.1744 -0.624748 13.0583 0.40132 14.4856C1.87075 16.5295 4.53539 18.1699 8.98393 18.1699C15.8779 18.1699 21.4117 12.5916 20.637 6.00102L21.7719 3.74722C22.559 2.1842 21.1913 0.406142 19.4655 0.748862L17.9661 1.04661C17.5686 0.838352 17.1571 0.681192 16.8056 0.567332C16.1203 0.345442 15.2909 0.169922 14.5232 0.169922C13.1441 0.169922 11.9539 0.521232 11.008 1.22585C10.0728 1.92256 9.54611 2.83817 9.25707 3.67897C9.12382 4.06653 9.03509 4.45526 8.97816 4.82835C8.4431 4.66115 7.89752 4.43618 7.3634 4.16147C6.15161 3.53824 5.17172 2.74814 4.61895 2.05543C3.69155 0.893222 1.72618 0.979392 1.03651 2.49013C0.0644834 4.61939 0.331123 7.14338 1.20485 9.18282C1.49771 9.86632 1.87866 10.542 2.34407 11.1682C2.26439 11.1691 2.18817 11.1695 2.11591 11.1697ZM8.98383 16.1699C5.09292 16.1699 3.08099 14.7706 2.04067 13.3236C1.99393 13.2586 2.04106 13.1699 2.1215 13.1697C3.17984 13.1667 5.35223 13.117 6.78499 12.2844C6.85908 12.2413 6.84278 12.1328 6.7614 12.1057C3.42156 10.9907 1.52308 6.26851 2.87101 3.31582C2.90192 3.24812 2.99357 3.23919 3.04007 3.29746C4.57985 5.2271 7.94651 7.11712 10.8756 7.16883C10.9392 7.16992 10.9872 7.11262 10.9776 7.05025C10.8595 6.29045 10.4088 2.16992 14.5231 2.16992C15.5055 2.16992 16.9673 2.64575 17.5057 3.13322C17.5306 3.15575 17.5643 3.16598 17.5974 3.15942L19.8604 2.71002C19.9426 2.6937 20.0077 2.77837 19.9703 2.8528L18.5666 5.64011C18.5569 5.65946 18.5538 5.68167 18.5576 5.70298C19.5406 11.1899 15.0146 16.1699 8.98383 16.1699Z" fill="#777E91"/>
</g>
</svg>
